<svg width="663" height="521" viewBox="0 0 663 521" fill="none" xmlns="http://www.w3.org/2000/svg">
<g opacity="0.05">
<path d="M91.2859 260.5C91.2859 325.049 103.048 372.436 126.573 402.661C144.984 427.251 170.554 439.546 203.285 439.546C234.992 439.546 260.563 427.251 279.996 402.661C303.01 372.948 314.516 325.561 314.516 260.5C314.516 195.439 303.01 148.052 279.996 118.339C260.563 93.7493 234.992 81.4543 203.285 81.4543C170.554 81.4543 144.984 93.7493 126.573 118.339C103.048 147.54 91.2859 194.927 91.2859 260.5ZM44.4919 439.546C14.8301 394.976 -0.000732422 335.294 -0.000732422 260.5C-0.000732422 185.706 14.8301 126.024 44.4919 81.4543C80.802 27.1514 133.733 0 203.285 0C272.325 0 325 27.1514 361.31 81.4543C390.972 126.024 405.803 185.706 405.803 260.5C405.803 335.294 390.972 394.976 361.31 439.546C325 493.849 272.325 521 203.285 521C133.733 521 80.802 493.849 44.4919 439.546Z" fill="white"/>
<path d="M662.999 509.473H572.48V168.288H452.043V105.276C486.819 104.764 515.969 95.7984 539.494 78.3805C563.019 60.4503 577.594 38.1657 583.219 11.5266H662.999V509.473Z" fill="white"/>
</g>
</svg>
