<svg width="742" height="530" viewBox="0 0 742 530" fill="none" xmlns="http://www.w3.org/2000/svg">
<g style="mix-blend-mode:overlay" opacity="0.14">
<path d="M182.573 0C242.169 0 287.37 22.7143 318.178 68.1429C349.491 113.571 365.147 178.938 365.147 264.243C365.147 350.052 349.491 415.924 318.178 461.857C287.37 507.286 242.169 530 182.573 530C122.978 530 77.5238 507.286 46.2109 461.857C15.4032 415.924 -0.000732422 350.052 -0.000732422 264.243C-0.000732422 178.938 15.4032 113.571 46.2109 68.1429C77.5238 22.7143 122.978 0 182.573 0ZM182.573 73.4429C153.786 73.4429 132.826 88.081 119.695 117.357C106.564 146.129 99.9983 195.09 99.9983 264.243C99.9983 333.9 106.564 383.367 119.695 412.643C132.826 441.919 153.786 456.557 182.573 456.557C211.361 456.557 232.32 442.171 245.451 413.4C258.583 384.124 265.148 334.405 265.148 264.243C265.148 194.586 258.583 145.371 245.451 116.6C232.32 87.8286 211.361 73.4429 182.573 73.4429Z" fill="white"/>
<path d="M564.728 0C599.071 0 628.617 6.30953 653.364 18.9286C678.616 31.5476 697.808 48.7095 710.939 70.4143C724.07 92.1191 730.636 116.348 730.636 143.1C730.636 171.871 724.323 199.633 711.697 226.386C699.575 252.633 679.121 281.91 650.333 314.214C621.546 346.519 579.375 389.171 523.82 442.171H741.999L731.393 518.643H413.972V447.471C478.618 381.852 524.83 333.395 552.607 302.1C580.89 270.3 600.839 243.295 612.455 221.086C624.576 198.371 630.637 174.9 630.637 150.671C630.637 127.452 623.819 109.281 610.182 96.1572C597.051 83.0333 579.375 76.4714 557.153 76.4714C537.456 76.4714 520.032 80.7619 504.88 89.3429C490.234 97.4191 474.83 111.048 458.669 130.229L399.578 83.2857C442.507 27.7619 497.557 0 564.728 0Z" fill="white"/>
</g>
</svg>
