<svg width="734" height="524" viewBox="0 0 734 524" fill="none" xmlns="http://www.w3.org/2000/svg">
<g style="mix-blend-mode:overlay" opacity="0.25">
<path d="M180.425 0C239.319 0 283.989 22.4572 314.434 67.3715C345.378 112.286 360.851 176.912 360.851 261.251C360.851 346.09 345.378 411.215 314.434 456.629C283.989 501.543 239.319 524 180.425 524C121.531 524 76.6115 501.543 45.6672 456.629C15.2219 411.215 -0.000732422 346.09 -0.000732422 261.251C-0.000732422 176.912 15.2219 112.286 45.6672 67.3715C76.6115 22.4572 121.531 0 180.425 0ZM180.425 72.6115C151.976 72.6115 131.263 87.0838 118.287 116.029C105.31 144.474 98.8216 192.882 98.8216 261.251C98.8216 330.12 105.31 379.027 118.287 407.971C131.263 436.916 151.976 451.389 180.425 451.389C208.874 451.389 229.587 437.166 242.563 408.72C255.54 379.775 262.028 330.619 262.028 261.251C262.028 192.383 255.54 143.726 242.563 115.28C229.587 86.8343 208.874 72.6115 180.425 72.6115Z" fill="white"/>
<path d="M558.066 0C591.505 0 620.204 5.73905 644.161 17.2171C668.617 28.6952 686.834 44.1657 698.813 63.6286C711.29 83.0914 717.529 104.55 717.529 128.006C717.529 158.448 708.795 183.899 691.326 204.36C673.857 224.322 649.9 238.295 619.455 246.28C652.895 249.274 680.346 261.251 701.807 282.211C723.269 303.171 733.999 332.116 733.999 369.046C733.999 397.991 726.513 424.191 711.54 447.646C697.066 471.101 676.103 489.815 648.653 503.789C621.202 517.263 588.76 524 551.328 524C482.452 524 428.049 499.796 388.121 451.389L441.276 400.486C458.245 417.453 474.965 429.93 491.435 437.914C507.906 445.4 526.123 449.143 546.087 449.143C573.039 449.143 594.5 441.657 610.471 426.686C626.942 411.215 635.177 390.505 635.177 364.554C635.177 335.61 627.441 314.899 611.969 302.423C596.996 289.947 574.536 283.709 544.59 283.709H504.911L516.141 215.589H543.092C567.548 215.589 587.013 208.851 601.487 195.377C616.461 181.903 623.947 163.189 623.947 139.234C623.947 118.773 617.209 102.804 603.733 91.3257C590.258 79.3486 572.29 73.36 549.83 73.36C530.365 73.36 512.647 77.1029 496.676 84.5886C480.705 91.5753 464.733 102.554 448.762 117.526L400.1 64.3772C445.518 21.4591 498.173 0 558.066 0Z" fill="white"/>
</g>
</svg>
