<svg width="1427" height="517" viewBox="0 0 1427 517" fill="none" xmlns="http://www.w3.org/2000/svg">
<g style="mix-blend-mode:overlay" opacity="0.59">
<path d="M209.918 504.65H210.918V503.65V13.3496V12.3496H209.918H131.287H130.476L130.308 13.1428C124.818 39.1151 110.601 60.8547 87.5907 78.3772C64.6035 95.3785 36.0882 104.158 1.98455 104.659L0.999268 104.674V105.659V167.704V168.704H1.99927H119.702V503.65V504.65H120.702H209.918ZM429.544 397.878L429.538 397.871L429.533 397.863C406.549 368.363 394.965 321.974 394.965 258.5C394.965 194.008 406.553 147.633 429.522 119.15L429.533 119.136L429.544 119.122C447.487 95.1802 472.382 83.2035 504.35 83.2035C535.3 83.2035 560.211 95.1732 579.173 119.142C601.647 148.136 612.98 194.52 612.98 258.5C612.98 322.48 601.647 368.864 579.173 397.857C560.212 421.827 535.3 433.796 504.35 433.796C472.382 433.796 447.487 421.82 429.544 397.878ZM347.012 435.351L347.014 435.353C383 489.12 435.493 516 504.35 516C572.707 516 624.946 489.118 660.931 435.353L660.933 435.351C690.312 391.249 704.952 332.268 704.952 258.5C704.952 184.732 690.312 125.751 660.933 81.6491L660.931 81.6473C624.946 27.8825 572.707 1 504.35 1C435.493 1 383 27.8801 347.014 81.6473L347.012 81.6491C317.633 125.751 302.993 184.732 302.993 258.5C302.993 332.268 317.633 391.249 347.012 435.351ZM894.411 397.878L894.405 397.871L894.399 397.863C871.416 368.363 859.831 321.974 859.831 258.5C859.831 194.008 871.42 147.633 894.389 119.15L894.4 119.136L894.411 119.122C912.354 95.1802 937.249 83.2035 969.217 83.2035C1000.17 83.2035 1025.08 95.1733 1044.04 119.143C1066.51 148.136 1077.85 194.52 1077.85 258.5C1077.85 322.48 1066.51 368.864 1044.04 397.857C1025.08 421.827 1000.17 433.796 969.217 433.796C937.249 433.796 912.354 421.82 894.411 397.878ZM811.879 435.351L811.88 435.353C847.867 489.12 900.359 516 969.217 516C1037.57 516 1089.81 489.118 1125.8 435.353L1125.8 435.351C1155.18 391.249 1169.82 332.268 1169.82 258.5C1169.82 184.732 1155.18 125.751 1125.8 81.6491L1125.8 81.6473C1089.81 27.8825 1037.57 1 969.217 1C900.359 1 847.867 27.8801 811.88 81.6473L811.879 81.6491C782.5 125.751 767.86 184.732 767.86 258.5C767.86 332.268 782.5 391.249 811.879 435.351ZM1627.83 26.2173L1628.86 24.664H1627H1532.01H1531.46L1531.17 25.1261L1420.19 199.085L1309.88 25.1284L1309.58 24.664H1309.03H1212.02H1210.16L1211.19 26.2168L1369.13 264.319L1209.84 503.095L1208.81 504.65H1210.68H1305.66H1306.21L1306.5 504.192L1418.16 330.895L1528.47 504.187L1528.77 504.65H1529.32H1626.33H1628.19L1627.16 503.098L1469.22 264.995L1627.83 26.2173Z" stroke="white" stroke-width="2"/>
</g>
</svg>
