<svg width="51" height="51" viewBox="0 0 51 51" fill="none" xmlns="http://www.w3.org/2000/svg">
<path d="M28.1104 35.9444H25.4993V25.5H22.8882M25.4993 15.0556H25.5254M48.9993 25.5C48.9993 28.5861 48.3914 31.6419 47.2104 34.4931C46.0295 37.3442 44.2985 39.9348 42.1163 42.117C39.9341 44.2992 37.3435 46.0302 34.4923 47.2112C31.6412 48.3922 28.5853 49 25.4993 49C22.4132 49 19.3574 48.3922 16.5062 47.2112C13.6551 46.0302 11.0644 44.2992 8.88226 42.117C6.70008 39.9348 4.96908 37.3442 3.7881 34.4931C2.60711 31.6419 1.99927 28.5861 1.99927 25.5C1.99927 19.2674 4.47515 13.2901 8.88226 8.88299C13.2894 4.47589 19.2667 2 25.4993 2C31.7319 2 37.7092 4.47589 42.1163 8.88299C46.5234 13.2901 48.9993 19.2674 48.9993 25.5Z" stroke="#FA9B27" stroke-width="4" stroke-linecap="round" stroke-linejoin="round"/>
</svg>
