<svg width="309" height="144" viewBox="0 0 309 144" fill="none" xmlns="http://www.w3.org/2000/svg">
<path d="M49.3175 88.2532C49.3175 95.2294 46.7196 101.92 42.0953 106.853C37.4709 111.786 31.199 114.557 24.6592 114.557H24.6047V15.4216H24.6592C27.9899 15.4216 33.7892 28.7914 38.9169 44.3103L27.6995 51.1646L40.7502 50.0415C45.5148 65.3668 49.3175 81.5247 49.3175 88.2532Z" fill="#9575CD"/>
<path d="M24.5948 15.4216V114.557C18.0653 114.542 11.8083 111.763 7.19715 106.832C2.58602 101.9 -0.00241834 95.2184 1.69541e-06 88.2532C0.171979 84.4544 0.679473 80.6814 1.51566 76.9843L8.94856 76.6938L2.54121 72.1437C7.67798 49.7027 19.2493 15.6637 24.5948 15.4216Z" fill="#673AB7"/>
<path d="M24.4777 78.698L23.4794 79.1046L20.9655 141.209L24.4777 143.213V78.698Z" fill="#6D4C41"/>
<path d="M24.376 78.698V143.213L27.8882 141.209L25.7101 78.9497L24.376 78.698Z" fill="#795548"/>
<path d="M258.317 95.3206C258.375 98.2333 257.886 101.129 256.881 103.838C255.876 106.546 254.374 109.014 252.463 111.095C250.553 113.177 248.272 114.831 245.754 115.96C243.236 117.089 240.533 117.67 237.802 117.67C235.071 117.67 232.367 117.089 229.85 115.96C227.332 114.831 225.051 113.177 223.14 111.095C221.23 109.014 219.728 106.546 218.723 103.838C217.717 101.129 217.229 98.2333 217.287 95.3206C217.287 78.4754 226.471 48.2798 237.797 48.2798C249.124 48.2798 258.317 83.1998 258.317 95.3206Z" fill="#673AB7"/>
<path d="M258.317 95.3207C258.317 79.7727 249.132 48.2798 237.797 48.2798V117.258C243.245 117.25 248.467 114.935 252.315 110.821C256.163 106.708 258.322 101.132 258.317 95.3207Z" fill="#9575CD"/>
<path d="M236.136 95.3792L234.901 140.28H240.701L239.466 95.3792H236.136Z" fill="#6D4C41"/>
<path d="M237.797 95.3792V140.28H240.701L239.467 95.3792H237.797Z" fill="#795548"/>
<path d="M308.988 82.7934C308.988 90.7196 306.036 98.3212 300.782 103.926C295.528 109.531 288.402 112.679 280.972 112.679H280.899V0H280.972C284.747 0 291.336 15.1898 297.172 32.8386L284.466 40.5835L299.295 39.3056C304.668 56.8092 308.988 75.1259 308.988 82.7934Z" fill="#9575CD"/>
<path d="M280.895 0V112.66C273.476 112.642 266.366 109.485 261.126 103.883C255.885 98.2799 252.942 90.6885 252.943 82.7741C253.138 78.4371 253.715 74.1294 254.667 69.9078L270.903 70.508L255.838 64.4864C261.682 38.9571 274.824 0.280754 280.895 0Z" fill="#673AB7"/>
<path d="M280.762 72.3865L279.627 72.8512L276.777 142.953L280.762 142.933V72.3865Z" fill="#6D4C41"/>
<path d="M280.652 72.3865V142.933L284.637 142.953L282.168 72.6672L280.652 72.3865Z" fill="#795548"/>
</svg>
