<svg width="1166" height="629" viewBox="0 0 1166 629" fill="none" xmlns="http://www.w3.org/2000/svg">
<g clip-path="url(#clip0)">
<path d="M760.521 107.851L474.119 629H998.269L760.521 107.851Z" fill="#432E71"/>
<path d="M474.119 629L757.852 627.11L737.564 448.112L707.132 408.565L759.195 109.917L474.119 629Z" fill="#30214A"/>
<path d="M779.166 258.287L845.084 291.988L760.521 107.851L703.386 274.626L728.428 284.888L779.166 258.287Z" fill="#6F5ABD"/>
<path d="M674.509 262.915L728.428 284.888L759.196 109.917L674.509 262.915Z" fill="#4E3392"/>
<path d="M0 627.958V358.613L58.885 251.487V251.469L144.844 95.0802L144.862 95.0449L146.382 92.2542L240.417 263.339L441.372 629L0 627.958Z" fill="#432E71"/>
<path d="M0 358.437L58.6906 251.558L145.003 94.3916L144.862 95.0451L144.844 95.0805L135.602 135.317L135.531 135.617L114.059 229.32L86.3304 350.171L116.427 375.517L124.892 627.057L0 627.958V358.614V358.437Z" fill="#30214A"/>
<path d="M178.44 230.45L242.574 264.505L146.382 92.2542L112.327 228.454L148.397 246.471L178.44 230.45Z" fill="#6F5ABD"/>
<path d="M57.7891 251.964L112.327 228.454L145.003 94.3916L57.7891 251.964Z" fill="#4E3392"/>
<path d="M407.829 0L105.47 629H773.121L563.348 240.024L539.137 234.972L407.829 0Z" fill="#432E71"/>
<path d="M36.8828 629L212.371 626.721L264.823 423.472L321.305 367.021L406.222 2.50806L250.703 286.389L208.342 310.57L36.8828 629Z" fill="#30214A"/>
<path d="M563.348 240.024L539.137 234.972L482.673 133.833L504.852 349.888L510.914 428.171L613.733 629H773.121L563.348 240.024Z" fill="#50329B"/>
<path d="M407.83 0L323.319 154.34L373.686 142.17L488.717 197.685L510.542 183.802L407.83 0Z" fill="#6F5ABD"/>
<path d="M488.717 197.685L510.56 183.784L482.673 133.833L488.717 197.685Z" fill="#4D459E"/>
<path d="M327.578 146.038L323.319 154.34L373.686 142.17L406.221 2.50806L327.578 146.038Z" fill="#4E3392"/>
<path d="M1016.91 324.064L974.235 414.04L960.592 445.057L855.988 629H1166L1080.02 449.172L1067.14 438.857L1016.91 324.064Z" fill="#432E71"/>
<path d="M899.833 513.554L819.335 542.274L774.199 629H940.339L966.83 522.898L1012.51 467.171L1016.91 324.064L899.833 513.554Z" fill="#30214A"/>
</g>
<defs>
<clipPath id="clip0">
<rect width="1166" height="629" fill="white"/>
</clipPath>
</defs>
</svg>
