<svg width="400" height="179" viewBox="0 0 400 179" fill="none" xmlns="http://www.w3.org/2000/svg">
<path d="M378.911 137.965H329.921C338.242 127.793 344.075 115.825 346.955 103.011C349.836 90.196 349.685 76.8874 346.514 64.1411C343.344 51.3948 337.242 39.5616 328.692 29.5807C320.142 19.5998 309.379 11.7458 297.258 6.64203C285.137 1.53828 271.992 -0.674755 258.865 0.178581C245.737 1.03192 232.99 4.92813 221.635 11.558C210.279 18.1879 200.627 27.3689 193.446 38.3725C186.264 49.3761 181.75 61.8994 180.263 74.9485C171.307 70.5551 161.217 69.0077 151.353 70.5147C141.489 72.0217 132.325 76.5107 125.095 83.377C117.864 90.2433 112.916 99.1569 110.915 108.917C108.915 118.677 109.959 128.815 113.906 137.965H97.7216C97.3759 130.796 94.2802 124.036 89.0763 119.084C83.8724 114.133 76.9595 111.371 69.7709 111.371C62.5823 111.371 55.6693 114.133 50.4655 119.084C45.2616 124.036 42.1659 130.796 41.8202 137.965H21.4764C18.7265 137.944 15.9994 138.465 13.4519 139.499C10.9044 140.533 8.58659 142.059 6.63156 143.99C4.67654 145.921 3.12285 148.218 2.05972 150.75C0.996578 153.282 0.444968 155.999 0.436523 158.744C0.538221 164.086 2.73435 169.176 6.55333 172.919C10.3723 176.662 15.5095 178.761 20.8614 178.764H378.685C384.105 178.76 389.301 176.608 393.134 172.782C396.966 168.956 399.121 163.768 399.126 158.356C399.122 152.986 396.997 147.833 393.213 144.016C389.429 140.199 384.29 138.024 378.911 137.965Z" fill="url(#paint0_linear)"/>
<defs>
<linearGradient id="paint0_linear" x1="504079" y1="41566.2" x2="504079" y2="82376.3" gradientUnits="userSpaceOnUse">
<stop stop-color="#9438FE" stop-opacity="0.71"/>
<stop offset="0.65625" stop-color="#781BE6" stop-opacity="0"/>
<stop offset="0.99" stop-color="#380F79" stop-opacity="0"/>
</linearGradient>
</defs>
</svg>
