<svg width="457" height="200" viewBox="0 0 457 200" fill="none" xmlns="http://www.w3.org/2000/svg">
<path d="M19.9424 158.781L31.7571 158.7C28.2701 149.232 27.1177 139.065 28.3971 129.058C29.6765 119.051 33.3502 109.499 39.1077 101.209C44.8651 92.9193 52.537 86.135 61.475 81.4298C70.4129 76.7247 80.3542 74.237 90.4584 74.1771H93.0803C95.6029 61.652 100.733 49.7956 108.138 39.3761C115.543 28.9567 125.058 20.2064 136.066 13.6924C147.075 7.1783 159.331 3.04569 172.041 1.56226C184.751 0.0788373 197.632 1.27771 209.848 5.08116C222.065 8.88461 233.345 15.2078 242.957 23.6412C252.57 32.0745 260.301 42.4298 265.649 54.0363C270.997 65.6428 273.844 78.2415 274.004 91.0164C274.164 103.791 271.634 116.457 266.578 128.194C271.772 125.967 277.411 124.967 283.056 125.272C288.7 125.577 294.198 127.179 299.12 129.953C304.043 132.727 308.258 136.598 311.437 141.265C314.615 145.931 316.672 151.268 317.446 156.858L329.908 156.777C329.689 155.03 329.575 153.271 329.568 151.51C329.175 145.15 330.084 138.777 332.241 132.78C334.399 126.783 337.758 121.289 342.115 116.632C346.472 111.976 351.734 108.256 357.58 105.699C363.425 103.142 369.732 101.802 376.114 101.761C382.496 101.72 388.82 102.98 394.698 105.462C400.576 107.944 405.885 111.597 410.301 116.197C414.717 120.798 418.147 126.249 420.381 132.218C422.614 138.187 423.605 144.548 423.293 150.912C423.305 152.676 423.218 154.44 423.034 156.196L434.768 156.115C437.526 156.021 440.274 156.481 442.851 157.466C445.428 158.451 447.781 159.941 449.771 161.849C451.761 163.757 453.348 166.044 454.438 168.575C455.528 171.105 456.099 173.829 456.118 176.583C456.136 179.338 455.602 182.068 454.545 184.613C453.489 187.158 451.933 189.466 449.968 191.4C448.004 193.335 445.671 194.856 443.107 195.875C440.544 196.895 437.802 197.391 435.043 197.334L382.006 197.673C378.494 198.061 374.95 198.061 371.438 197.673L285.822 198.207C284.325 198.41 282.817 198.523 281.306 198.546C279.803 198.536 278.301 198.445 276.807 198.271L97.4015 199.402C95.3785 199.612 93.323 199.725 91.2514 199.742C89.1798 199.758 87.1243 199.742 85.0851 199.483L20.2176 199.887C14.8392 199.774 9.71721 197.57 5.94143 193.745C2.16566 189.919 0.0341468 184.774 0.000406712 179.403C-0.0333334 174.032 2.03337 168.861 5.76078 164.988C9.4882 161.116 14.5821 158.848 19.9586 158.668L19.9424 158.781Z" fill="url(#paint0_linear)"/>
<defs>
<linearGradient id="paint0_linear" x1="227.493" y1="15.394" x2="227.493" y2="450.822" gradientUnits="userSpaceOnUse">
<stop stop-color="#9438FE" stop-opacity="0.51"/>
<stop offset="0.41" stop-color="#781BE6" stop-opacity="0.24"/>
<stop offset="0.99" stop-color="#380F79"/>
</linearGradient>
</defs>
</svg>
