<svg width="785" height="785" viewBox="0 0 785 785" fill="none" xmlns="http://www.w3.org/2000/svg">
<g opacity="0.6">
<circle cx="392.499" cy="392.5" r="392.5" fill="url(#paint0_linear)"/>
<circle cx="392.499" cy="392.5" r="392.5" fill="url(#paint1_linear)"/>
</g>
<circle opacity="0.6" cx="392.499" cy="392.5" r="326.5" fill="url(#paint2_linear)"/>
<g opacity="0.6">
<path d="M637.999 392.5C637.999 528.086 528.085 638 392.499 638C256.913 638 146.999 528.086 146.999 392.5C146.999 256.914 256.913 147 392.499 147C528.085 147 637.999 256.914 637.999 392.5Z" fill="url(#paint3_linear)"/>
<path d="M637.999 392.5C637.999 528.086 528.085 638 392.499 638C256.913 638 146.999 528.086 146.999 392.5C146.999 256.914 256.913 147 392.499 147C528.085 147 637.999 256.914 637.999 392.5Z" fill="url(#paint4_linear)"/>
</g>
<defs>
<linearGradient id="paint0_linear" x1="392.499" y1="0" x2="392.499" y2="785" gradientUnits="userSpaceOnUse">
<stop stop-color="#FFB533"/>
<stop offset="1" stop-color="#EF6400"/>
</linearGradient>
<linearGradient id="paint1_linear" x1="392.499" y1="0" x2="392.499" y2="785" gradientUnits="userSpaceOnUse">
<stop stop-color="#FFB533"/>
<stop offset="1" stop-color="#EF6400"/>
</linearGradient>
<linearGradient id="paint2_linear" x1="392.499" y1="66" x2="392.499" y2="719" gradientUnits="userSpaceOnUse">
<stop stop-color="#FFB533"/>
<stop offset="1" stop-color="#FF8933"/>
</linearGradient>
<linearGradient id="paint3_linear" x1="392.499" y1="147" x2="392.499" y2="638" gradientUnits="userSpaceOnUse">
<stop stop-color="#FFB533"/>
<stop offset="1" stop-color="#EF6400"/>
</linearGradient>
<linearGradient id="paint4_linear" x1="392.499" y1="147" x2="392.499" y2="638" gradientUnits="userSpaceOnUse">
<stop stop-color="#FFB533"/>
<stop offset="1" stop-color="#EF6400"/>
</linearGradient>
</defs>
</svg>
