<svg width="1780" height="215" viewBox="0 0 1780 215" fill="none" xmlns="http://www.w3.org/2000/svg">
<g clip-path="url(#clip0)">
<path d="M1724.78 121.261C1724.79 127.012 1723.65 132.707 1721.45 138.021C1719.24 143.334 1716.01 148.163 1711.94 152.23C1707.86 156.297 1703.02 159.523 1697.7 161.724C1692.37 163.926 1686.67 165.059 1680.9 165.059H1680.8V0H1680.9C1686.82 0 1697.14 22.2561 1706.27 48.0982L1686.31 59.5084L1709.54 57.6401C1718.02 83.2314 1724.78 110.064 1724.78 121.261Z" fill="#9575CD"/>
<path d="M1680.8 0V165.059C1669.18 165.032 1658.04 160.406 1649.83 152.195C1641.62 143.984 1637.01 132.86 1637.01 121.261C1637.32 114.921 1638.22 108.624 1639.71 102.453L1665.14 103.331L1641.54 94.5538C1650.69 57.0758 1671.28 0.401236 1680.8 0Z" fill="#673AB7"/>
<path d="M1680.59 106.039L1678.8 106.716L1674.34 209.433L1680.59 209.408V106.039Z" fill="#6D4C41"/>
<path d="M1680.41 106.039V209.408L1686.66 209.433L1682.79 106.466L1680.41 106.039Z" fill="#795548"/>
<path d="M1005.85 143.818C1005.85 152.853 1002.26 161.519 995.855 167.908C989.452 174.296 980.767 177.886 971.712 177.886H971.637V49.49H971.712C976.324 49.49 984.354 66.8059 991.454 86.9053L975.922 95.7827L993.992 94.3282C1000.59 114.177 1005.85 135.104 1005.85 143.818Z" fill="#9575CD"/>
<path d="M971.624 49.49V177.886C962.583 177.866 953.92 174.267 947.535 167.88C941.15 161.493 937.566 152.839 937.57 143.818C937.808 138.898 938.51 134.012 939.668 129.223L949.96 128.847L941.088 122.954C948.201 93.8893 964.223 49.8035 971.624 49.49Z" fill="#673AB7"/>
<path d="M971.461 131.443L970.078 131.969L966.598 212.404L971.461 215V131.443Z" fill="#6D4C41"/>
<path d="M971.323 131.443V215L976.186 212.404L973.17 131.769L971.323 131.443Z" fill="#795548"/>
<path d="M477.518 151.366C477.518 154.935 476.814 158.468 475.446 161.764C474.077 165.061 472.071 168.056 469.543 170.579C467.014 173.102 464.012 175.104 460.708 176.469C457.404 177.835 453.863 178.538 450.287 178.538C446.711 178.538 443.17 177.835 439.866 176.469C436.563 175.104 433.561 173.102 431.032 170.579C428.503 168.056 426.497 165.061 425.129 161.764C423.761 158.468 423.056 154.935 423.056 151.366C423.056 130.464 435.245 92.974 450.287 92.974C465.329 92.974 477.518 136.32 477.518 151.366Z" fill="#673AB7"/>
<path d="M477.518 151.366C477.518 132.069 465.329 92.974 450.287 92.974V178.613C453.868 178.608 457.413 177.899 460.72 176.527C464.026 175.155 467.03 173.147 469.558 170.617C472.087 168.087 474.091 165.085 475.457 161.782C476.823 158.479 477.523 154.939 477.518 151.366Z" fill="#9575CD"/>
<path d="M448.076 151.442L446.429 207.201H454.133L452.486 151.442H448.076Z" fill="#6D4C41"/>
<path d="M450.287 151.442V207.201H454.133L452.486 151.442H450.287Z" fill="#795548"/>
<path d="M1780 159.579C1780 166.243 1777.35 172.635 1772.62 177.347C1767.9 182.059 1761.5 184.707 1754.82 184.707C1748.14 184.707 1741.73 182.059 1737.01 177.347C1732.29 172.635 1729.63 166.243 1729.63 159.579C1729.63 140.245 1740.94 105.575 1754.77 105.575C1768.59 105.575 1780 145.661 1780 159.579Z" fill="#673AB7"/>
<path d="M1780 159.579C1780 141.737 1768.69 105.575 1754.87 105.575V184.769C1761.55 184.749 1767.94 182.085 1772.66 177.362C1777.37 172.639 1780.01 166.244 1780 159.579Z" fill="#9575CD"/>
<path d="M1752.77 159.654L1751.25 211.201H1758.37L1756.85 159.654H1752.77Z" fill="#6D4C41"/>
<path d="M1754.82 159.654V211.201H1758.37L1756.85 159.654H1754.82Z" fill="#795548"/>
<path d="M1295.24 152.971C1295.32 156.744 1294.65 160.494 1293.26 164.002C1291.86 167.51 1289.78 170.706 1287.14 173.402C1284.49 176.098 1281.33 178.24 1277.85 179.702C1274.36 181.164 1270.62 181.917 1266.84 181.917C1263.06 181.917 1259.31 181.164 1255.83 179.702C1252.34 178.24 1249.18 176.098 1246.54 173.402C1243.89 170.706 1241.81 167.51 1240.42 164.002C1239.03 160.494 1238.35 156.744 1238.43 152.971C1238.43 131.154 1251.15 92.0461 1266.83 92.0461C1282.51 92.0461 1295.24 137.273 1295.24 152.971Z" fill="#673AB7"/>
<path d="M1295.24 152.971C1295.24 132.834 1282.53 92.0461 1266.83 92.0461V181.384C1274.37 181.374 1281.61 178.375 1286.93 173.047C1292.26 167.719 1295.25 160.498 1295.24 152.971Z" fill="#9575CD"/>
<path d="M1264.53 153.047L1262.82 211.201H1270.85L1269.14 153.047H1264.53Z" fill="#6D4C41"/>
<path d="M1266.83 153.047V211.201H1270.85L1269.14 153.047H1266.83Z" fill="#795548"/>
<path d="M523.31 164.457C523.31 169.974 521.113 175.265 517.204 179.166C513.294 183.067 507.992 185.258 502.462 185.258C496.933 185.258 491.631 183.067 487.721 179.166C483.811 175.265 481.615 169.974 481.615 164.457C481.615 148.445 490.952 119.744 502.462 119.744C513.973 119.744 523.31 152.934 523.31 164.457Z" fill="#673AB7"/>
<path d="M523.31 164.457C523.31 149.674 513.973 119.744 502.462 119.744V185.309C505.203 185.305 507.917 184.763 510.448 183.714C512.979 182.664 515.278 181.127 517.214 179.191C519.15 177.255 520.685 174.957 521.731 172.429C522.777 169.901 523.313 167.192 523.31 164.457Z" fill="#9575CD"/>
<path d="M500.728 164.507L499.459 207.201H505.365L504.109 164.507H500.728Z" fill="#6D4C41"/>
<path d="M502.412 164.507V207.201H505.365L504.109 164.507H502.412Z" fill="#795548"/>
<path d="M143.808 161.36C143.808 164.289 143.23 167.19 142.107 169.896C140.983 172.602 139.337 175.061 137.261 177.133C135.185 179.204 132.72 180.847 130.008 181.968C127.296 183.089 124.389 183.666 121.453 183.666C118.517 183.666 115.61 183.089 112.898 181.968C110.186 180.847 107.721 179.204 105.645 177.133C103.57 175.061 101.923 172.602 100.799 169.896C99.6759 167.19 99.0977 164.289 99.0977 161.36C99.0977 144.207 109.151 113.425 121.453 113.425C133.755 113.425 143.808 149.009 143.808 161.36Z" fill="#673AB7"/>
<path d="M143.808 161.36C143.808 145.523 133.755 113.425 121.453 113.425V183.729C124.393 183.725 127.304 183.144 130.019 182.018C132.734 180.892 135.199 179.243 137.276 177.166C139.352 175.088 140.997 172.623 142.118 169.911C143.239 167.199 143.813 164.293 143.808 161.36Z" fill="#9575CD"/>
<path d="M119.606 161.435L118.249 207.201H124.582L123.225 161.435H119.606Z" fill="#6D4C41"/>
<path d="M121.415 161.435V207.201H124.582L123.225 161.435H121.415Z" fill="#795548"/>
<path d="M38.7418 167.215C38.8076 169.795 38.3553 172.362 37.4114 174.764C36.4675 177.167 35.0512 179.356 33.2459 181.204C31.4407 183.052 29.283 184.52 26.9 185.523C24.517 186.526 21.957 187.042 19.3708 187.042C16.7847 187.042 14.2247 186.526 11.8417 185.523C9.45872 184.52 7.30102 183.052 5.49575 181.204C3.69048 179.356 2.27417 177.167 1.33029 174.764C0.386421 172.362 -0.0659179 169.795 -6.40913e-05 167.215C-6.40913e-05 152.344 8.67066 125.675 19.3646 125.675C30.0585 125.675 38.7418 156.507 38.7418 167.215Z" fill="#673AB7"/>
<path d="M38.7418 167.215C38.7418 153.485 30.0711 125.675 19.3646 125.675V186.6C21.9126 186.597 24.4349 186.093 26.7877 185.117C29.1404 184.141 31.2774 182.712 33.0768 180.912C34.8761 179.112 36.3025 176.976 37.2745 174.626C38.2465 172.276 38.7451 169.758 38.7418 167.215Z" fill="#9575CD"/>
<path d="M17.7938 167.265L16.6251 206.925H22.104L20.9354 167.265H17.7938Z" fill="#6D4C41"/>
<path d="M19.3646 167.265V206.925H22.1041L20.9354 167.265H19.3646Z" fill="#795548"/>
<path d="M1365.4 136.746C1365.4 147.012 1361.31 156.857 1354.04 164.116C1346.76 171.375 1336.9 175.453 1326.61 175.453H1326.51V29.5159H1326.61C1331.84 29.5159 1340.96 49.189 1349.04 72.047L1331.45 82.0779L1351.98 80.4228C1359.42 103.093 1365.4 126.816 1365.4 136.746Z" fill="#9575CD"/>
<path d="M1326.51 29.5159V175.428C1316.24 175.405 1306.39 171.316 1299.13 164.06C1291.88 156.804 1287.8 146.972 1287.8 136.721C1288.07 131.104 1288.87 125.525 1290.19 120.057L1312.67 120.835L1291.81 113.036C1299.91 79.9714 1318.1 29.8795 1326.51 29.5159Z" fill="#673AB7"/>
<path d="M1326.32 123.267L1324.75 123.869L1320.8 214.661L1326.32 214.636V123.267Z" fill="#6D4C41"/>
<path d="M1326.17 123.267V214.636L1331.69 214.661L1328.27 123.631L1326.17 123.267Z" fill="#795548"/>
</g>
<defs>
<clipPath id="clip0">
<rect width="1780" height="215" fill="white"/>
</clipPath>
</defs>
</svg>
