<svg width="18" height="14" viewBox="0 0 18 14" fill="none" xmlns="http://www.w3.org/2000/svg">
<path d="M15.8026 3.47459C16.5059 2.98289 17.0975 2.36915 17.5796 1.66246V1.66176C16.9361 1.93918 16.2515 2.12366 15.5367 2.21306C16.2717 1.78096 16.833 1.10194 17.0968 0.283856C16.4115 0.686157 15.6548 0.969968 14.8485 1.1289C14.1978 0.446338 13.2703 0.0241699 12.2586 0.0241699C10.2957 0.0241699 8.71535 1.59293 8.71535 3.51575C8.71535 3.79246 8.73913 4.05853 8.7975 4.31183C5.8502 4.16993 3.24158 2.77926 1.48905 0.659905C1.18352 1.18283 1.00336 1.78096 1.00336 2.4245C1.00336 3.63353 1.63534 4.70491 2.57862 5.32575C2.00862 5.3151 1.45014 5.15191 0.9767 4.89577V4.93409C0.9767 6.63056 2.20534 8.03968 3.81735 8.36464C3.52839 8.44269 3.2142 8.47959 2.88776 8.47959C2.66077 8.47959 2.43162 8.46682 2.21687 8.41999C2.6759 9.80214 3.98021 10.8189 5.52953 10.8522C4.32322 11.781 2.7912 12.3408 1.13307 12.3408C0.842666 12.3408 0.563789 12.3281 0.284912 12.2933C1.85585 13.2902 3.71647 13.8599 5.72409 13.8599C11.9812 13.8599 16.0591 8.72012 15.8026 3.47459Z" fill="white"/>
</svg>
